<?xml version="1.0" encoding="UTF-8" standalone="no"?>
<!DOCTYPE svg PUBLIC "-//W3C//DTD SVG 1.0//EN" "http://www.w3.org/TR/2001/REC-SVG-20010904/DTD/svg10.dtd">
<svg xmlns:svg="http://www.w3.org/2000/svg" xmlns="http://www.w3.org/2000/svg" version="1.0" width="600" height="552.75" id="svg2168">
  <defs id="defs2170"/>
  <g transform="translate(456.14286,37.44386)" id="layer1">
    <path d="M -221.76786,-37.44386 L -330.51786,76.18114 L -261.51786,112.55614 L -269.01786,70.93114 L -208.64286,70.93114 L -176.76786,30.43114 L -176.76786,13.55614 C -199.8051,6.09586 -217.32822,-13.20854 -221.76786,-37.44386 z M -90.51786,-37.44386 C -94.9575,-13.20854 -112.48062,6.09586 -135.51786,13.55614 L -135.51786,30.43114 L -103.64286,70.93114 L -43.26786,70.93114 L -50.76786,112.55614 L 18.23214,76.18114 L -90.51786,-37.44386 z M -170.01786,70.93114 L -194.76786,106.93114 L -227.76786,106.93114 L -168.89286,515.30614 L -168.89286,181.18114 C -168.89286,169.85818 -163.21974,160.55614 -156.14286,160.55614 C -149.06598,160.55614 -143.39286,169.85818 -143.39286,181.18114 L -143.39286,515.30614 L -84.51786,106.93114 L -117.51786,106.93114 L -142.26786,70.93114 L -156.14286,70.93114 L -170.01786,70.93114 z M -305.76786,124.18114 L -456.14286,281.30614 C -379.21974,347.97286 -332.95326,379.47622 -254.76786,399.43114 C -256.25262,398.79334 -257.79798,398.22178 -259.26786,397.55614 C -304.83438,376.9207 -342.9603,342.69118 -369.14286,300.43114 L -286.64286,205.55614 L -240.51786,232.18114 L -253.26786,154.18114 L -262.64286,149.68114 L -305.76786,124.18114 z M -6.51786,124.18114 L -49.64286,149.68114 L -59.01786,154.18114 L -71.76786,232.18114 L -25.64286,205.55614 L 56.85714,300.43114 C 30.67458,342.69118 -7.45134,376.9207 -53.01786,397.55614 C -54.48774,398.22178 -56.0331,398.79334 -57.51786,399.43114 C 20.66754,379.47622 66.93402,347.97286 143.85714,281.30614 L -6.51786,124.18114 z M -285.89286,238.93114 C -285.89286,238.9309 -324.14286,284.30614 -324.14286,284.30614 C -298.97574,319.62562 -262.61514,345.4201 -218.01786,358.93114 L -233.01786,274.18114 C -254.11218,265.5217 -272.04666,253.4713 -285.89286,238.93114 z M -26.39286,238.93114 C -40.23906,253.4713 -58.17354,265.5217 -79.26786,274.18114 L -94.26786,358.93114 C -49.67058,345.4201 -13.30998,319.62562 11.85714,284.30614 C 11.85714,284.30614 -26.39286,238.9309 -26.39286,238.93114 z " style="opacity:1;fill:#e1b70b;fill-opacity:1;stroke:none;stroke-width:6;stroke-miterlimit:4;stroke-dasharray:none;stroke-dashoffset:1.8;stroke-opacity:1" id="path2264"/>
  </g>
</svg>
